<?xml version="1.0" encoding="utf-8"?>
<!-- Generator: Adobe Illustrator 22.0.1, SVG Export Plug-In . SVG Version: 6.00 Build 0)  -->
<svg version="1.1" id="Layer_1" xmlns="http://www.w3.org/2000/svg" xmlns:xlink="http://www.w3.org/1999/xlink" x="0px" y="0px"
	 viewBox="0 0 225 81" style="enable-background:new 0 0 225 81;" xml:space="preserve">
<style type="text/css">
	.st0{fill:#FFFFFF;}
</style>
<g>
	<polygon class="st0" points="93,38.9 78,38.9 78,44.8 90,44.8 90,47.8 78,47.8 78,56.6 75,56.6 75,36 93,36 	"/>
	<polygon class="st0" points="99,54 111,54 111,57 96,57 96,36 99,36 	"/>
	<polygon class="st0" points="114,42 117,42 117,45 120,45 120,48 123,48 123,45 126,45 126,42 129,42 129,45 126,45 126,48 123,48 
		123,51 126,51 126,54 129,54 129,57 126,57 126,54 123,54 123,51 120,51 120,54 117,54 117,57 114,57 114,54 117,54 117,51 120,51 
		120,48 117,48 117,45 114,45 	"/>
	<polygon class="st0" points="150,39 135,39 135,45 147,45 147,48 135,48 135,54 150,54 150,57 132,57 132,36 150,36 	"/>
	<path class="st0" d="M167.9,45v-6H156v6H167.9z M165,48v3h3v3h3v3h-3v-3h-3v-3h-3v-3h-6v9h-3V36h15v3h3v6h-3v3H165z"/>
	<rect x="174" y="54" class="st0" width="3" height="3"/>
	<polygon class="st0" points="180,42 192,42 192,45 195,45 195,57 192,57 192,45 183,45 183,57 180,57 	"/>
	<path class="st0" d="M210,45.1h-9V48h9V45.1z M201,45v-3h9v3h3v6h-12v3h9v3h-9v-3h-3v-9H201z"/>
	<polygon class="st0" points="225,42 225,45 222,45 222,57 219,57 219,45 216,45 216,42 219,42 219,36 222,36 222,42 	"/>
	<g>
		<g>
			<path class="st0" d="M51,1.5h-0.1v0.1l-0.1,0v0h0v0.1v0.1h0V2l-1.2,16.9l-9.3-0.2l-5.5,0.6l-0.1,0.1h0h0l-0.1,0v0.1h0v0.1l0,0v0
				v0.1l-0.3,11.6l-5.3-0.5V18.8v-0.1v-0.1l-0.1,0l0,0l0-0.1l-0.1,0l-9.7-0.2l-0.4-12V6.1V6h0v0l0-0.1h-0.1l0,0h-0.1l-7.9-1.2h-0.1
				L0.4,5.4H0.3H0.3l-0.1,0L0.1,5.5L0.1,5.6L0,5.7v0l1.2,13.1c0,0.2,0.2,0.3,0.4,0.3l9.2,0.2l0.7,12.5l0.1,0.1v0l0.1,0.1l0.1,0.1
				l10.1,1.2l0.2,7.3l-2.5-0.4l-0.1,0h-0.2l0,0l-6.9,3l0,0v0.1l-0.1,0.1v0l0.3,4.8l-0.8-0.2v0h-0.1h-0.1h-0.1h0l-7,3.5l-0.1,0
				l-0.1,0.1v0l-0.1,0v0v0.1L5,61.5v0c0.1,0.1,0.1,0.2,0.2,0.3h0l8.3,2.9c0.1,0.1,0.2,0.1,0.3,0l6.2-4.8h0.1l0.1-0.1v-0.1l0-0.1
				l-0.1-2.9l2.4,0.7h0.1l0.2,0h0.1l5.8-4.5h0.1l0-0.1h0v-0.2v-5.4l5,1l-0.2,12v0.1l0.1,0.1l0.1,0h0v0.1L46.2,64l-0.9,11.6l0,0.2
				c0,0.1,0.1,0.2,0.2,0.2L60,81h0.2l0-0.1h0.1l0.1,0l0-0.1l0.1,0v-0.1l2.1-8.2v0l1.6-11.3V61l0-0.1v0l-0.1,0l0,0l-0.1,0h-0.1
				l-13.2-3.2l1-11.4v0V46l0-0.1l-0.1,0l0,0h0l-11.8-2l0.4-8.3l8.5,1l0.1,0h0l0.2,0l0-0.1l3.8-2.8v-0.1l0.1,0v-0.1l0.1-0.1v-0.1
				l1.1-12.9L68,20.8l0.2,0.1l0.2-0.1l1.4-0.8l0.1-0.1v0l0.1-0.1v0l2.4-16.9l0,0V2.7l-0.9-2.5l-0.1-0.1l-0.1-0.1h0V0h-0.1h0L51,1.5z
				"/>
		</g>
		<g>
			<polygon points="71,0.4 51,1.9 49.8,20 68.3,20.5 			"/>
			<polygon points="48.5,36.2 49.8,20 34.8,19.6 34.4,34.5 			"/>
			<polygon points="46.5,63.8 45.7,75.6 60.2,80.6 61.8,68 			"/>
			<polygon points="46.5,63.8 47.5,50.7 34.1,48 33.9,60.2 			"/>
			<polygon points="1.5,18.7 11.1,19 10.3,4.9 0.4,5.7 			"/>
			<polygon points="12.5,43.6 13.1,54.4 22.6,57.1 22.4,45.6 			"/>
			<polygon points="13.1,54.4 4.5,52.1 5.3,61.5 13.7,64.5 			"/>
			<polygon points="34.4,34.5 22.1,33 22.4,45.6 34.1,48 			"/>
			<polygon points="22.1,33 21.8,19.3 11.1,19 11.8,31.8 			"/>
		</g>
	</g>
</g>
</svg>
