<?xml version="1.0" encoding="utf-8"?>
<!-- Generator: Adobe Illustrator 23.0.2, SVG Export Plug-In . SVG Version: 6.00 Build 0)  -->
<svg version="1.1" id="Layer_1" xmlns="http://www.w3.org/2000/svg" xmlns:xlink="http://www.w3.org/1999/xlink" x="0px" y="0px"
	 viewBox="0 0 458.7 181.8" style="enable-background:new 0 0 458.7 181.8;" xml:space="preserve">
<style type="text/css">
	.st0{fill:#FFFFFF;}
</style>
<g>
	<path class="st0" d="M164.5,79.8c-7.2,12.4-17.2,21.6-30.1,27.9c-12.4,6.1-26,8.9-40.9,8.4l-1.5,1.3l-0.9,63.7l-90.3,0.7V0.7
		c7,1,15,1.5,24.2,1.5c6.6,0,16.6-0.4,30.1-1.1S78.7,0,85.3,0c17.1,0,31.2,2,42.4,6.1c13.9,5,25.1,13.8,33.6,26.2
		c5,7.3,7.5,16.1,7.5,26.2C168.7,66,167.3,73.1,164.5,79.8z M166,48.9c-6.4-18.2-17.7-30.8-34-37.9c-12.5-5.4-29.7-8.1-51.7-8.1
		c-6.1,0-15.3,0.3-27.7,0.8C40.3,4.3,31.1,4.6,25.3,4.6C16.6,4.6,9,4,2.5,2.9L2,178.9h86.6l1.7-64.5c26.4,0.2,48.1-8.2,65.3-25.3
		c7.6-9.7,11.4-19.9,11.4-30.7C166.9,55.2,166.6,52,166,48.9z M162.9,66c-2.1,9.2-7.1,17.5-15,25.1c-7.3,6.9-15.7,11.9-25.1,15.2
		c-13.3,2.8-23.2,4.2-29.5,4.2c-1.7,0-3.4,0-5.1,0l-1.6,1.6l-0.9,63.1H5.8L4.9,8.1C10.3,8.7,16.2,9,22.7,9c6.6,0,16.7-0.4,30.4-1.3
		c13.6-0.9,23.8-1.3,30.4-1.3c16,0,29.3,1.8,39.8,5.3c13.2,4.5,24,12.1,32.3,22.7c5.4,10.2,8.1,18.4,8.1,24.8
		C163.6,61.6,163.3,63.8,162.9,66z M156.4,57.1c-2.6,0.4-4.6,2.3-6.1,5.9c-1.2,2.9-2.4,5.9-3.7,8.8c-14.6,18-36.5,27-65.9,27
		c-3.2,0-6.5-0.1-9.9-0.4c0,4.3,0.1,11.7,0.2,22.2c0.1,9.5,0.1,16.9-0.2,22.2c-0.2,8.1-0.8,15.3-1.7,21.6l-53,1.3
		c0.1,0.2,0.1,1.1,0,2.6c0,1,0.2,1.5,0.7,1.5c7.6,0.7,17.2,1.1,29,1.1h29l1.7-1.7l1.6-64.4c18.3,0.3,37.4-4.3,57.1-13.8
		c14.3-10.4,21.5-20.5,21.5-30.5C156.8,59.3,156.7,58.2,156.4,57.1z"/>
	<path class="st0" d="M313.5,181.8H117L219,4.6c13.1,21.8,29,51.1,47.9,88C290.6,138.8,306.1,168.5,313.5,181.8z M308.5,178.5
		c-0.1-0.4-14.9-28.7-44.4-84.9C246.4,59.4,231.3,31.4,219,9.4l-99.1,170.7c12.2-0.1,33.3-0.1,63.3,0c27,0.1,48.1,0.1,63.1,0
		C269.4,179.9,290.2,179.3,308.5,178.5z M303.2,176.1H126.7L219,16.7C256.9,86.3,285,139.4,303.2,176.1z M293.5,169.6
		c-5.5-10.4-13.9-25.6-25.2-45.7l-4.1,2.2c1.3,4,4.5,10.7,9.5,20c4.4,8.2,7.2,14.7,8.3,19.5l-30.5,1.8v3.9c0.9,0,7.8,0.1,21,0.2
		C281.2,171.6,288.1,171,293.5,169.6z"/>
	<path class="st0" d="M458.7,122.7c-6,16.5-16.7,30-32.2,40.4c-15.5,10.5-32,15.7-49.6,15.7c-16.1-0.1-30.9-3.8-44.4-11.2
		c-13.9-7.7-25.1-18.7-33.6-33c-7.6-13-11.4-27.9-11.4-44.8c0-19.3,4.9-35.9,14.9-49.7c8.9-12.7,19.9-22.5,33-29.3
		s27-10.2,41.8-10.2c6,0,12,0.5,18,1.7c12.2,2.3,23.7,7.5,34.5,15.4c11.2,8.3,19.4,18.2,24.4,29.7l-71.5,43.1
		C397.2,98.8,422.5,109.5,458.7,122.7z M454.2,124.3c-1.6-0.6-14.6-5.8-38.9-15.6c-15.7-6.1-28.2-11.9-37.5-17.3
		c8.1-5.3,20.3-12.9,36.5-22.8c16.3-10,28.4-17.6,36.3-22.8c-3.1-8.9-13.1-19.3-30.3-31.3c-10.6-7.4-24-11.2-40-11.2
		c-17.5,0-33.6,4-48.2,12.1c-11.1,6.1-20.4,14.4-27.7,24.9C297.1,50.8,292.6,62,291,73.9c-0.9,5.5-1.3,10.9-1.3,16.1
		c0,24.7,8.2,44.7,24.6,60c19.1,17.7,40.1,26.6,62.9,26.6c7.9,0,15.8-1.2,23.7-3.5c12.2-3.8,23.1-9.8,32.7-18
		C444.4,145.9,451.2,135.6,454.2,124.3z M449,126c-2.1,10.8-8.8,20.5-20.2,29.2c-9.7,7.3-20.5,12.5-32.5,15.6
		c-6.5,1.6-13,2.4-19.6,2.4c-12.6,0-24.6-2.9-36.1-8.6c-11.5-5.8-21.6-13.8-30.3-24.2c-11.3-13.6-16.9-30.6-16.9-51.2
		c0-13.5,2.8-25.6,8.3-36.3c7.2-14.1,17.7-25.3,31.4-33.8c13.7-8.5,28.3-12.7,43.8-12.6c14.4,0,27.6,3.2,39.6,9.5
		c13,6.9,22.8,16.4,29.5,28.8c-17,10.6-42.4,26.5-76.1,47.5c10.6,5.6,23.7,11.6,39.1,17.8C422.4,115.5,435.7,120.8,449,126z
		 M434.7,130.1L380.2,109v5.7l24,9.7c9.7,3.8,17.4,7.2,23.1,10.3L414,148.4c1.2,1.6,2.5,2.4,3.8,2.4c1.2,0,3-1,5.3-2.9
		c2.3-2,4-3.1,5.1-3.5c4.9-5.3,7.3-9,7.3-11.4C435.6,131.9,435.3,130.9,434.7,130.1z"/>
</g>
</svg>
